# xmcd CD database file
#
# Track frame offsets:
#	150
#	17684
#	34724
#	49160
#	64286
#	84012
#	101002
#	117354
#	135834
#	150209
#	169622
#	183344
#	239747
#
# Disc length: 3342 seconds
#
# Revision: 0
# Processed by: cddbd v1.5.1PL0 Copyright (c) Steve Scherf et al.
# Submitted via: CDex 1.51
#
DISCID=990d0c0d
DTITLE=Rascal Flatts - Feels Like Today
DYEAR=2004
DGENRE=Country
TTITLE0=Where You Are
TTITLE1=Bless the Broken Road
TTITLE2=Then I Did
TTITLE3=Feels Like Today
TTITLE4=Fast Cars and Freedom
TTITLE5=When The Sand Runs Out
TTITLE6=Here's To You
TTITLE7=The Day Before You
TTITLE8=Break Away
TTITLE9=Holes
TTITLE10=Oklahoma-Texas Line
TTITLE11=Head Over Heels
TTITLE12=Data Track
EXTD=YEAR: 2004
EXTT0=
EXTT1=
EXTT2=
EXTT3=
EXTT4=
EXTT5=
EXTT6=
EXTT7=
EXTT8=
EXTT9=
EXTT10=
EXTT11=
EXTT12=
PLAYORDER=
